<?xml version="1.0" encoding="UTF-8" standalone="no"?>
<!-- Created with Inkscape (http://www.inkscape.org/) -->

<svg
   width="512pt"
   height="512pt"
   viewBox="0 0 180.62222 180.62222"
   version="1.1"
   id="svg135"
   inkscape:version="1.2.2 (b0a8486541, 2022-12-01)"
   sodipodi:docname="money.svg"
   inkscape:export-filename="money.png"
   inkscape:export-xdpi="36"
   inkscape:export-ydpi="36"
   xmlns:inkscape="http://www.inkscape.org/namespaces/inkscape"
   xmlns:sodipodi="http://sodipodi.sourceforge.net/DTD/sodipodi-0.dtd"
   xmlns="http://www.w3.org/2000/svg"
   xmlns:svg="http://www.w3.org/2000/svg">
  <sodipodi:namedview
     id="namedview137"
     pagecolor="#ffffff"
     bordercolor="#000000"
     borderopacity="0.25"
     inkscape:showpageshadow="2"
     inkscape:pageopacity="0.0"
     inkscape:pagecheckerboard="0"
     inkscape:deskcolor="#d1d1d1"
     inkscape:document-units="mm"
     showgrid="false"
     inkscape:zoom="1.8004139"
     inkscape:cx="294.93218"
     inkscape:cy="354.64067"
     inkscape:window-width="3840"
     inkscape:window-height="2319"
     inkscape:window-x="0"
     inkscape:window-y="0"
     inkscape:window-maximized="1"
     inkscape:current-layer="layer1" />
  <defs
     id="defs132" />
  <g
     inkscape:label="Layer 1"
     inkscape:groupmode="layer"
     id="layer1">
    <path
       id="path1029"
       style="font-size:199.557px;font-family:Arial;-inkscape-font-specification:Arial;fill:#ffd42a;stroke:#000000;stroke-width:1.05833;stroke-linecap:round;stroke-linejoin:bevel;stroke-dashoffset:60.4724"
       d="M 94.15756 7.2905111 L 94.15756 16.162321 C 92.412593 16.060625 90.632984 16.006258 88.813184 16.006258 C 88.013066 16.006258 87.221454 16.021486 86.433484 16.043982 L 86.433484 7.3716431 L 71.459721 7.3716431 L 71.459721 17.998901 C 68.393471 18.748162 65.439519 19.705727 62.601864 20.878312 C 54.741715 24.126307 48.765715 28.900875 44.673242 35.201986 C 40.580768 41.438135 38.534599 48.161265 38.534599 55.371814 C 38.534599 61.932764 40.19085 67.876572 43.503805 73.203284 C 46.88172 78.465036 51.981306 82.882394 58.802096 86.455188 C 61.762199 88.026601 66.011999 89.661932 71.459721 91.356698 L 71.459721 142.69723 C 71.365773 142.65756 71.270144 142.6207 71.176534 142.58044 C 64.680544 139.72221 59.873784 136.01978 56.755709 131.4726 C 53.702594 126.86044 51.753516 120.98153 50.909037 113.83595 L 33.077568 115.39502 C 33.337407 124.94413 35.936005 133.51873 40.872957 141.11903 C 45.87487 148.65438 52.728317 154.30588 61.432943 158.07356 C 64.516363 159.39828 67.862337 160.48469 71.459721 161.34364 L 71.459721 171.80605 L 86.433484 171.80605 L 86.433484 163.49286 C 88.865499 163.6453 91.377501 163.72489 93.977726 163.72489 C 94.038053 163.72489 94.097306 163.72295 94.15756 163.72282 L 94.15756 171.72544 L 109.13184 171.72544 L 109.13184 162.19889 C 113.47505 161.27522 117.58481 159.93632 121.45564 158.17122 C 129.64058 154.40355 135.90941 149.17416 140.26172 142.48329 C 144.61404 135.72746 146.79001 128.54951 146.79001 120.94921 C 146.79001 113.28394 144.80874 106.5281 140.84618 100.68171 C 136.88363 94.770361 130.74512 89.898182 122.43025 86.065548 C 119.38524 84.681452 114.92318 83.17377 109.13184 81.550061 L 109.13184 36.273755 C 111.10818 37.201056 112.88269 38.301014 114.44004 39.586731 C 120.09155 44.198884 123.40457 51.019622 124.37897 60.049048 L 142.50293 58.68479 C 142.17813 50.304964 139.83965 42.801996 135.48734 36.176086 C 131.13503 29.550177 124.89839 24.548199 116.7784 21.170284 C 114.34573 20.130513 111.79558 19.250721 109.13184 18.524967 L 109.13184 7.2905111 L 94.15756 7.2905111 z M 89.592981 32.66829 C 91.172573 32.66829 92.68959 32.721635 94.15756 32.817118 L 94.15756 77.781816 C 93.036216 77.523322 91.940432 77.267006 90.762419 77.003569 C 89.257577 76.65924 87.825661 76.316108 86.433484 75.973657 L 86.433484 32.731335 C 87.461916 32.693385 88.509082 32.66829 89.592981 32.66829 z M 71.459721 35.259863 L 71.459721 71.556873 C 67.097579 69.940193 64.036844 68.344912 62.309892 66.772152 C 58.607177 63.459197 56.755709 59.237057 56.755709 54.105225 C 56.755709 48.193874 59.35379 43.159187 64.550582 39.001754 C 66.449554 37.477887 68.756954 36.233765 71.459721 35.259863 z M 86.433484 95.432935 C 89.233763 96.098533 91.781228 96.71989 94.15756 97.311373 L 94.15756 146.76055 C 93.806781 146.76574 93.455648 146.77037 93.100777 146.77037 C 90.813102 146.77037 88.592256 146.65567 86.433484 146.43396 L 86.433484 95.432935 z M 109.13184 101.40983 C 110.16698 101.74417 111.09585 102.05986 111.8092 102.33794 C 117.7855 104.61154 122.07306 107.43754 124.67146 110.81546 C 127.26986 114.12841 128.5689 118.02553 128.5689 122.50777 C 128.5689 126.92504 127.20496 131.0179 124.47664 134.78557 C 121.81328 138.48829 117.72042 141.41138 112.19884 143.55506 C 111.20413 143.94124 110.18136 144.29162 109.13184 144.60823 L 109.13184 101.40983 z " />
  </g>
</svg>
