# Blender 5.0.1
# www.blender.org
mtllib models/empty_track.mtl
o Cube
v 1.000000 0.380704 0.722568
v 1.000000 0.527701 0.722568
v 1.000000 0.380704 0.900250
v 1.000000 0.527701 0.900250
v -1.000000 0.380704 0.722568
v -1.000000 0.527701 0.722568
v -1.000000 0.380704 0.900250
v -1.000000 0.527701 0.900250
vn -0.0000 -1.0000 -0.0000
vn -0.0000 -0.0000 1.0000
vn -1.0000 -0.0000 -0.0000
vn -0.0000 1.0000 -0.0000
vn 1.0000 -0.0000 -0.0000
vn -0.0000 -0.0000 -1.0000
vt 0.625000 0.500000
vt 0.875000 0.500000
vt 0.875000 0.750000
vt 0.625000 0.750000
vt 0.375000 0.750000
vt 0.625000 1.000000
vt 0.375000 1.000000
vt 0.375000 0.000000
vt 0.625000 0.000000
vt 0.625000 0.250000
vt 0.375000 0.250000
vt 0.125000 0.500000
vt 0.375000 0.500000
vt 0.125000 0.750000
s 0
usemtl Material
f 1/1/1 3/4/1 7/3/1 5/2/1
f 4/5/2 8/7/2 7/6/2 3/4/2
f 8/8/3 6/11/3 5/10/3 7/9/3
f 6/12/4 8/14/4 4/5/4 2/13/4
f 2/13/5 4/5/5 3/4/5 1/1/5
f 6/11/6 2/13/6 1/1/6 5/10/6
o Cube.001
v 1.014591 0.388374 -0.884504
v 1.014591 0.535371 -0.884504
v 1.014591 0.388374 -0.706822
v 1.014591 0.535371 -0.706822
v -0.985409 0.388374 -0.884504
v -0.985409 0.535371 -0.884504
v -0.985409 0.388374 -0.706822
v -0.985409 0.535371 -0.706822
vn -0.0000 -1.0000 -0.0000
vn -0.0000 -0.0000 1.0000
vn -1.0000 -0.0000 -0.0000
vn -0.0000 1.0000 -0.0000
vn 1.0000 -0.0000 -0.0000
vn -0.0000 -0.0000 -1.0000
vt 0.625000 0.500000
vt 0.875000 0.500000
vt 0.875000 0.750000
vt 0.625000 0.750000
vt 0.375000 0.750000
vt 0.625000 1.000000
vt 0.375000 1.000000
vt 0.375000 0.000000
vt 0.625000 0.000000
vt 0.625000 0.250000
vt 0.375000 0.250000
vt 0.125000 0.500000
vt 0.375000 0.500000
vt 0.125000 0.750000
s 0
usemtl Material
f 9/15/7 11/18/7 15/17/7 13/16/7
f 12/19/8 16/21/8 15/20/8 11/18/8
f 16/22/9 14/25/9 13/24/9 15/23/9
f 14/26/10 16/28/10 12/19/10 10/27/10
f 10/27/11 12/19/11 11/18/11 9/15/11
f 14/25/12 10/27/12 9/15/12 13/24/12
o Cube.002
v -0.446484 0.236600 1.009909
v -0.446484 0.383597 1.009909
v -0.820254 0.236600 1.009909
v -0.820254 0.383597 1.009909
v -0.446484 0.236600 -0.990091
v -0.446484 0.383597 -0.990091
v -0.820254 0.236600 -0.990091
v -0.820254 0.383597 -0.990091
vn -0.0000 -1.0000 -0.0000
vn -1.0000 -0.0000 -0.0000
vn -0.0000 -0.0000 -1.0000
vn -0.0000 1.0000 -0.0000
vn -0.0000 -0.0000 1.0000
vn 1.0000 -0.0000 -0.0000
vt 0.625000 0.500000
vt 0.875000 0.500000
vt 0.875000 0.750000
vt 0.625000 0.750000
vt 0.375000 0.750000
vt 0.625000 1.000000
vt 0.375000 1.000000
vt 0.375000 0.000000
vt 0.625000 0.000000
vt 0.625000 0.250000
vt 0.375000 0.250000
vt 0.125000 0.500000
vt 0.375000 0.500000
vt 0.125000 0.750000
s 0
usemtl Material.001
f 17/29/13 19/32/13 23/31/13 21/30/13
f 20/33/14 24/35/14 23/34/14 19/32/14
f 24/36/15 22/39/15 21/38/15 23/37/15
f 22/40/16 24/42/16 20/33/16 18/41/16
f 18/41/17 20/33/17 19/32/17 17/29/17
f 22/39/18 18/41/18 17/29/18 21/38/18
o Cube.003
v 0.861111 0.236600 1.009909
v 0.861111 0.383597 1.009909
v 0.487341 0.236600 1.009909
v 0.487341 0.383597 1.009909
v 0.861111 0.236600 -0.990091
v 0.861111 0.383597 -0.990091
v 0.487341 0.236600 -0.990091
v 0.487341 0.383597 -0.990091
vn -0.0000 -1.0000 -0.0000
vn -1.0000 -0.0000 -0.0000
vn -0.0000 -0.0000 -1.0000
vn -0.0000 1.0000 -0.0000
vn -0.0000 -0.0000 1.0000
vn 1.0000 -0.0000 -0.0000
vt 0.625000 0.500000
vt 0.875000 0.500000
vt 0.875000 0.750000
vt 0.625000 0.750000
vt 0.375000 0.750000
vt 0.625000 1.000000
vt 0.375000 1.000000
vt 0.375000 0.000000
vt 0.625000 0.000000
vt 0.625000 0.250000
vt 0.375000 0.250000
vt 0.125000 0.500000
vt 0.375000 0.500000
vt 0.125000 0.750000
s 0
usemtl Material.001
f 25/43/19 27/46/19 31/45/19 29/44/19
f 28/47/20 32/49/20 31/48/20 27/46/20
f 32/50/21 30/53/21 29/52/21 31/51/21
f 30/54/22 32/56/22 28/47/22 26/55/22
f 26/55/23 28/47/23 27/46/23 25/43/23
f 30/53/24 26/55/24 25/43/24 29/52/24
o Cube.004
v 0.201476 0.236600 1.009909
v 0.201476 0.383597 1.009909
v -0.172294 0.236600 1.009909
v -0.172294 0.383597 1.009909
v 0.201476 0.236600 -0.990091
v 0.201476 0.383597 -0.990091
v -0.172294 0.236600 -0.990091
v -0.172294 0.383597 -0.990091
vn -0.0000 -1.0000 -0.0000
vn -1.0000 -0.0000 -0.0000
vn -0.0000 -0.0000 -1.0000
vn -0.0000 1.0000 -0.0000
vn -0.0000 -0.0000 1.0000
vn 1.0000 -0.0000 -0.0000
vt 0.625000 0.500000
vt 0.875000 0.500000
vt 0.875000 0.750000
vt 0.625000 0.750000
vt 0.375000 0.750000
vt 0.625000 1.000000
vt 0.375000 1.000000
vt 0.375000 0.000000
vt 0.625000 0.000000
vt 0.625000 0.250000
vt 0.375000 0.250000
vt 0.125000 0.500000
vt 0.375000 0.500000
vt 0.125000 0.750000
s 0
usemtl Material.001
f 33/57/25 35/60/25 39/59/25 37/58/25
f 36/61/26 40/63/26 39/62/26 35/60/26
f 40/64/27 38/67/27 37/66/27 39/65/27
f 38/68/28 40/70/28 36/61/28 34/69/28
f 34/69/29 36/61/29 35/60/29 33/57/29
f 38/67/30 34/69/30 33/57/30 37/66/30
o Cube.005
v -1.000000 0.206117 1.000000
v -1.000000 0.004033 1.138885
v -1.000000 0.206117 -1.000000
v -1.000000 0.004033 -1.158236
v 1.000000 0.206117 1.000000
v 1.000000 0.004033 1.138885
v 1.000000 0.206117 -1.000000
v 1.000000 0.004033 -1.158236
vn -1.0000 -0.0000 -0.0000
vn -0.0000 0.6165 -0.7873
vn 1.0000 -0.0000 -0.0000
vn -0.0000 0.5664 0.8241
vn -0.0000 1.0000 -0.0000
vn -0.0000 -1.0000 -0.0000
vt 0.375000 0.000000
vt 0.625000 0.000000
vt 0.625000 0.250000
vt 0.375000 0.250000
vt 0.625000 0.500000
vt 0.375000 0.500000
vt 0.625000 0.750000
vt 0.375000 0.750000
vt 0.625000 1.000000
vt 0.375000 1.000000
vt 0.125000 0.500000
vt 0.125000 0.750000
vt 0.875000 0.500000
vt 0.875000 0.750000
s 0
usemtl Material.002
f 41/71/31 43/74/31 44/73/31 42/72/31
f 43/74/32 47/76/32 48/75/32 44/73/32
f 47/76/33 45/78/33 46/77/33 48/75/33
f 45/78/34 41/80/34 42/79/34 46/77/34
f 43/81/35 41/82/35 45/78/35 47/76/35
f 48/75/36 46/77/36 42/84/36 44/83/36
