# Blender 5.0.1
# www.blender.org
mtllib models/lava_rock.mtl
o Plane
v -0.960749 0.088143 0.939247
v 0.960085 0.025572 0.943086
v -0.932114 -0.075220 -0.938359
v 0.936369 -0.082231 -0.885409
v 0.000000 0.256079 1.000000
v 0.000000 0.222729 -1.000000
v -0.500000 0.192125 -1.000000
v -0.500000 0.327879 1.000000
v 0.502558 0.213210 1.000000
v 0.502558 0.339992 -1.000000
v -1.000000 0.301783 0.000000
v 1.000000 0.263950 0.000000
v 0.000000 0.840096 0.000000
v -0.500000 1.108604 0.000000
v 0.502558 0.977945 0.000000
v 1.000000 0.074034 -0.500000
v 0.000000 1.012372 -0.500000
v -0.500000 1.019429 -0.500000
v 0.502558 1.000067 -0.500000
v -1.000000 0.341549 -0.500000
v -1.000000 0.313726 0.514076
v 1.000000 0.251381 0.500000
v 0.000000 0.964113 0.500000
v -0.500000 1.108604 0.500000
v 0.502558 0.913451 0.500000
v -1.000000 0.198430 0.750000
v 1.000000 0.190449 0.750000
v 0.000000 0.732884 0.750000
v -0.500000 0.933198 0.750000
v 0.502558 0.838773 0.750000
v 1.054334 0.194506 0.234140
v 0.000000 1.108604 0.250000
v -0.500000 1.108604 0.250000
v 0.502558 1.001526 0.250000
v -1.000000 0.217048 0.250000
v -1.000000 0.315962 -0.250000
v 1.000000 0.153124 -0.250000
v 0.000000 0.911548 -0.250000
v -0.500000 1.064104 -0.250000
v 0.502558 0.861093 -0.250000
v 0.751279 0.077419 1.000000
v 0.751279 0.233447 -1.000000
v 0.751279 0.806532 0.000000
v 0.751279 0.708183 -0.500000
v 0.751279 0.619284 0.500000
v 0.751279 0.434057 0.750000
v 0.751279 0.868142 0.250000
v 0.751279 0.693741 -0.250000
v -0.750000 0.074761 -1.000000
v -0.750000 0.287726 1.000000
v -0.750000 0.864282 0.000000
v -0.750000 0.826782 -0.500000
v -0.750000 0.890691 0.500000
v -0.750000 0.737421 0.750000
v -0.750000 0.986261 0.250000
v -0.750000 0.927750 -0.250000
v 1.000000 0.002338 -0.750000
v 0.000000 0.784972 -0.750000
v -0.500000 0.893000 -0.750000
v 0.502558 0.841734 -0.750000
v -1.000000 0.181741 -0.750000
v 0.751279 0.577979 -0.750000
v -0.750000 0.664572 -0.750000
v -0.247642 0.233689 1.000000
v -0.247642 0.177268 -1.000000
v -0.247642 0.945778 0.000000
v -0.247642 1.108604 -0.500000
v -0.247642 1.108604 0.500000
v -0.247642 0.914455 0.750000
v -0.247642 0.921276 0.250000
v -0.247642 1.108604 -0.250000
v -0.247642 0.822315 -0.750000
v 0.245208 0.279944 -1.000000
v 0.245208 0.235162 1.000000
v 0.245208 0.907355 0.000000
v 0.245208 1.006368 -0.500000
v 0.245208 0.939394 0.500000
v 0.245208 0.784549 0.750000
v 0.245208 0.898230 0.250000
v 0.245208 0.886930 -0.250000
v 0.245208 0.812667 -0.750000
vn 0.8037 0.3272 -0.4970
vn -0.0063 0.3826 -0.9239
vn -0.2424 0.3505 -0.9047
vn -0.0751 0.4339 -0.8978
vn -0.3199 0.9470 -0.0274
vn -0.5802 0.7912 -0.1930
vn -0.1465 0.8890 -0.4338
vn 0.9061 0.4123 -0.0950
vn 0.0554 0.8870 0.4584
vn -0.5341 0.8117 -0.2364
vn 0.5020 0.8478 0.1710
vn 0.9197 0.3894 -0.0504
vn 0.7408 0.6026 0.2967
vn 0.4482 0.6809 0.5792
vn -0.5687 0.6873 0.4518
vn -0.0499 0.9077 0.4167
vn -0.0245 0.3915 0.9199
vn -0.1981 0.4198 0.8857
vn 0.1264 0.3933 0.9107
vn 0.4477 0.5588 0.6981
vn 0.8555 0.4493 0.2573
vn -0.0859 0.9927 -0.0850
vn -0.5557 0.8166 0.1561
vn -0.1480 0.9847 0.0924
vn 0.8933 0.4102 -0.1835
vn 0.4843 0.7923 0.3712
vn -0.6055 0.7953 0.0302
vn -0.0836 0.9609 -0.2638
vn 0.5262 0.7727 -0.3549
vn 0.5804 0.6753 0.4551
vn 0.4421 0.4069 0.7993
vn 0.7800 0.5552 0.2886
vn 0.6617 0.7168 0.2199
vn 0.5170 0.8438 -0.1438
vn 0.3541 0.4757 -0.8052
vn -0.9184 0.3910 0.0607
vn -0.9374 0.3482 -0.0008
vn -0.7157 0.3993 0.5730
vn -0.8888 0.4010 0.2216
vn -0.9082 0.4139 -0.0624
vn -0.9359 0.3514 -0.0262
vn -0.5919 0.3326 -0.7342
vn -0.8521 0.4401 -0.2834
vn 0.6953 0.6225 -0.3592
vn -0.0361 0.8171 -0.5753
vn -0.5893 0.6997 -0.4039
vn 0.1849 0.6855 -0.7042
vn 0.9142 0.3759 -0.1518
vn -0.0282 0.7709 -0.6363
vn 0.2224 0.9487 0.2245
vn 0.3283 0.8845 -0.3314
vn 0.0808 0.3612 0.9290
vn 0.0298 0.8038 0.5941
vn -0.2551 0.9631 -0.0861
vn 0.5696 0.8210 0.0402
vn 0.0589 0.3476 -0.9358
vn -0.0338 0.7644 -0.6438
vn -0.0862 0.9911 0.1011
vn 0.4250 0.8865 0.1832
vn -0.0275 0.4378 0.8986
vn -0.0434 0.7908 0.6106
vn 0.0570 0.9136 0.4025
vn 0.2508 0.8593 -0.4458
vn -0.0717 0.4143 -0.9073
vt 0.875639 0.875000
vt 1.000000 0.875000
vt 1.000000 1.000000
vt 0.875639 1.000000
vt 0.376179 0.875000
vt 0.500000 0.875000
vt 0.500000 1.000000
vt 0.376179 1.000000
vt 0.125000 0.875000
vt 0.250000 0.875000
vt 0.250000 1.000000
vt 0.125000 1.000000
vt 0.622604 0.875000
vt 0.751279 0.875000
vt 0.751279 1.000000
vt 0.622604 1.000000
vt 0.622604 0.375000
vt 0.751279 0.375000
vt 0.751279 0.500000
vt 0.622604 0.500000
vt 0.125000 0.375000
vt 0.250000 0.375000
vt 0.250000 0.500000
vt 0.125000 0.500000
vt 0.376179 0.375000
vt 0.500000 0.375000
vt 0.500000 0.500000
vt 0.376179 0.500000
vt 0.875639 0.375000
vt 1.000000 0.375000
vt 1.000000 0.500000
vt 0.875639 0.500000
vt 0.622604 0.625000
vt 0.751279 0.625000
vt 0.751279 0.750000
vt 0.622604 0.750000
vt 0.125000 0.625000
vt 0.250000 0.625000
vt 0.250000 0.750000
vt 0.125000 0.750000
vt 0.376179 0.625000
vt 0.500000 0.625000
vt 0.500000 0.750000
vt 0.376179 0.750000
vt 0.875639 0.625000
vt 1.000000 0.625000
vt 1.000000 0.750000
vt 0.875639 0.750000
vt 0.875639 0.125000
vt 1.000000 0.125000
vt 1.000000 0.250000
vt 0.875639 0.250000
vt 0.376179 0.125000
vt 0.500000 0.125000
vt 0.500000 0.250000
vt 0.376179 0.250000
vt 0.125000 0.125000
vt 0.250000 0.125000
vt 0.250000 0.250000
vt 0.125000 0.250000
vt 0.622604 0.125000
vt 0.751279 0.125000
vt 0.751279 0.250000
vt 0.622604 0.250000
vt 0.622604 0.000000
vt 0.751279 0.000000
vt 0.125000 0.000000
vt 0.250000 0.000000
vt 0.376179 0.000000
vt 0.500000 0.000000
vt 0.875639 0.000000
vt 1.000000 0.000000
vt 0.000000 0.500000
vt 0.000000 0.625000
vt 0.000000 0.250000
vt 0.000000 0.375000
vt 0.000000 0.000000
vt 0.000000 0.125000
vt 0.000000 0.750000
vt 0.000000 0.875000
vt 0.000000 1.000000
s 0
usemtl Material
f 62/1/1 57/2/1 4/3/1 42/4/1
f 72/5/2 58/6/2 6/7/2 65/8/2
f 63/9/3 59/10/3 7/11/3 49/12/3
f 81/13/4 60/14/4 10/15/4 73/16/4
f 79/17/5 34/18/5 15/19/5 75/20/5
f 55/21/6 33/22/6 14/23/6 51/24/6
f 70/25/7 32/26/7 13/27/7 66/28/7
f 47/29/8 31/30/8 12/31/8 43/32/8
f 80/33/9 40/34/9 19/35/9 76/36/9
f 56/37/10 39/38/10 18/39/10 52/40/10
f 71/41/11 38/42/11 17/43/11 67/44/11
f 48/45/12 37/46/12 16/47/12 44/48/12
f 46/49/13 27/50/13 22/51/13 45/52/13
f 69/53/14 28/54/14 23/55/14 68/56/14
f 54/57/15 29/58/15 24/59/15 53/60/15
f 78/61/16 30/62/16 25/63/16 77/64/16
f 74/65/17 9/66/17 30/62/17 78/61/17
f 50/67/18 8/68/18 29/58/18 54/57/18
f 64/69/19 5/70/19 28/54/19 69/53/19
f 41/71/20 2/72/20 27/50/20 46/49/20
f 45/52/21 22/51/21 31/30/21 47/29/21
f 68/56/22 23/55/22 32/26/22 70/25/22
f 53/60/23 24/59/23 33/22/23 55/21/23
f 77/64/24 25/63/24 34/18/24 79/17/24
f 43/32/25 12/31/25 37/46/25 48/45/25
f 66/28/26 13/27/26 38/42/26 71/41/26
f 51/24/27 14/23/27 39/38/27 56/37/27
f 75/20/28 15/19/28 40/34/28 80/33/28
f 15/19/29 43/32/29 48/45/29 40/34/29
f 25/63/30 45/52/30 47/29/30 34/18/30
f 9/66/31 41/71/31 46/49/31 30/62/31
f 30/62/32 46/49/32 45/52/32 25/63/32
f 40/34/33 48/45/33 44/48/33 19/35/33
f 34/18/34 47/29/34 43/32/34 15/19/34
f 60/14/35 62/1/35 42/4/35 10/15/35
f 11/73/36 51/24/36 56/37/36 36/74/36
f 21/75/37 53/60/37 55/21/37 35/76/37
f 1/77/38 50/67/38 54/57/38 26/78/38
f 26/78/39 54/57/39 53/60/39 21/75/39
f 36/74/40 56/37/40 52/40/40 20/79/40
f 35/76/41 55/21/41 51/24/41 11/73/41
f 61/80/42 63/9/42 49/12/42 3/81/42
f 20/79/43 52/40/43 63/9/43 61/80/43
f 19/35/44 44/48/44 62/1/44 60/14/44
f 76/36/45 19/35/45 60/14/45 81/13/45
f 52/40/46 18/39/46 59/10/46 63/9/46
f 67/44/47 17/43/47 58/6/47 72/5/47
f 44/48/48 16/47/48 57/2/48 62/1/48
f 18/39/49 67/44/49 72/5/49 59/10/49
f 14/23/50 66/28/50 71/41/50 39/38/50
f 24/59/51 68/56/51 70/25/51 33/22/51
f 8/68/52 64/69/52 69/53/52 29/58/52
f 29/58/53 69/53/53 68/56/53 24/59/53
f 39/38/54 71/41/54 67/44/54 18/39/54
f 33/22/55 70/25/55 66/28/55 14/23/55
f 59/10/56 72/5/56 65/8/56 7/11/56
f 17/43/57 76/36/57 81/13/57 58/6/57
f 13/27/58 75/20/58 80/33/58 38/42/58
f 23/55/59 77/64/59 79/17/59 32/26/59
f 5/70/60 74/65/60 78/61/60 28/54/60
f 28/54/61 78/61/61 77/64/61 23/55/61
f 38/42/62 80/33/62 76/36/62 17/43/62
f 32/26/63 79/17/63 75/20/63 13/27/63
f 58/6/64 81/13/64 73/16/64 6/7/64
