# Blender 4.0.2
# www.blender.org
mtllib models/player.mtl
o Cube
v -0.974706 5.736967 -0.980803
v -0.974706 3.736967 -0.980803
v 1.025294 5.736967 -0.980803
v 1.025294 3.736967 -0.980803
v -0.974706 5.736967 1.019197
v -0.974706 3.736967 1.019197
v 1.025294 5.736967 1.019197
v 1.025294 3.736967 1.019197
vn -0.0000 1.0000 -0.0000
vn 1.0000 -0.0000 -0.0000
vn -0.0000 -0.0000 1.0000
vn -0.0000 -1.0000 -0.0000
vn -0.0000 -0.0000 -1.0000
vn -1.0000 -0.0000 -0.0000
vt 0.625000 0.500000
vt 0.875000 0.500000
vt 0.875000 0.750000
vt 0.625000 0.750000
vt 0.375000 0.750000
vt 0.625000 1.000000
vt 0.375000 1.000000
vt 0.375000 0.000000
vt 0.625000 0.000000
vt 0.625000 0.250000
vt 0.375000 0.250000
vt 0.125000 0.500000
vt 0.375000 0.500000
vt 0.125000 0.750000
s 0
usemtl Material
f 1/1/1 5/2/1 7/3/1 3/4/1
f 4/5/2 3/4/2 7/6/2 8/7/2
f 8/8/3 7/9/3 5/10/3 6/11/3
f 6/12/4 2/13/4 4/5/4 8/14/4
f 2/13/5 1/1/5 3/4/5 4/5/5
f 6/11/6 5/10/6 1/1/6 2/13/6
o Cube.001
v -0.798815 3.639581 -0.801012
v -0.798815 1.943014 -0.801012
v 0.788494 3.639581 -0.801012
v 0.788494 1.943014 -0.801012
v -0.798815 3.639581 0.786297
v -0.798815 1.943014 0.786297
v 0.788494 3.639581 0.786297
v 0.788494 1.943014 0.786297
vn -0.0000 1.0000 -0.0000
vn 1.0000 -0.0000 -0.0000
vn -0.0000 -0.0000 1.0000
vn -0.0000 -1.0000 -0.0000
vn -0.0000 -0.0000 -1.0000
vn -1.0000 -0.0000 -0.0000
vt 0.625000 0.500000
vt 0.875000 0.500000
vt 0.875000 0.750000
vt 0.625000 0.750000
vt 0.375000 0.750000
vt 0.625000 1.000000
vt 0.375000 1.000000
vt 0.375000 0.000000
vt 0.625000 0.000000
vt 0.625000 0.250000
vt 0.375000 0.250000
vt 0.125000 0.500000
vt 0.375000 0.500000
vt 0.125000 0.750000
s 0
usemtl Material
f 9/15/7 13/16/7 15/17/7 11/18/7
f 12/19/8 11/18/8 15/20/8 16/21/8
f 16/22/9 15/23/9 13/24/9 14/25/9
f 14/26/10 10/27/10 12/19/10 16/28/10
f 10/27/11 9/15/11 11/18/11 12/19/11
f 14/25/12 13/24/12 9/15/12 10/27/12
o Cube.002
v -0.249115 1.688666 0.254228
v -0.249115 -0.007901 0.254228
v 0.238794 1.688666 0.254228
v 0.238794 -0.007901 0.254228
v -0.249115 1.688666 0.726922
v -0.249115 -0.007901 0.726922
v 0.238794 1.688666 0.726922
v 0.238794 -0.007901 0.726922
v -0.249115 1.688666 -0.268943
v -0.249115 -0.007901 -0.268943
v 0.238794 1.688666 -0.268943
v 0.238794 -0.007901 -0.268943
v -0.249115 1.688666 -0.741637
v -0.249115 -0.007901 -0.741637
v 0.238793 1.688666 -0.741637
v 0.238793 -0.007901 -0.741637
vn -0.0000 1.0000 -0.0000
vn 1.0000 -0.0000 -0.0000
vn -0.0000 -0.0000 1.0000
vn -0.0000 -1.0000 -0.0000
vn -0.0000 -0.0000 -1.0000
vn -1.0000 -0.0000 -0.0000
vt 0.625000 0.500000
vt 0.875000 0.500000
vt 0.875000 0.750000
vt 0.625000 0.750000
vt 0.375000 0.750000
vt 0.625000 1.000000
vt 0.375000 1.000000
vt 0.375000 0.000000
vt 0.625000 0.000000
vt 0.625000 0.250000
vt 0.375000 0.250000
vt 0.125000 0.500000
vt 0.375000 0.500000
vt 0.125000 0.750000
s 0
usemtl Material
f 17/29/13 21/30/13 23/31/13 19/32/13
f 20/33/14 19/32/14 23/34/14 24/35/14
f 24/36/15 23/37/15 21/38/15 22/39/15
f 22/40/16 18/41/16 20/33/16 24/42/16
f 18/41/17 17/29/17 19/32/17 20/33/17
f 22/39/18 21/38/18 17/29/18 18/41/18
f 25/29/13 27/32/13 31/31/13 29/30/13
f 28/33/14 32/35/14 31/34/14 27/32/14
f 32/36/17 30/39/17 29/38/17 31/37/17
f 30/40/16 32/42/16 28/33/16 26/41/16
f 26/41/15 28/33/15 27/32/15 25/29/15
f 30/39/18 26/41/18 25/29/18 29/38/18
o Cube.003
v -0.254113 3.304076 0.836212
v -0.254113 1.799098 1.619400
v 0.243792 3.304076 0.836212
v 0.243792 1.799098 1.619400
v -0.254113 3.522286 1.255525
v -0.254113 2.017308 2.038713
v 0.243792 3.522286 1.255525
v 0.243792 2.017308 2.038713
v -0.254113 3.304076 -0.850928
v -0.254113 1.799098 -1.634115
v 0.243792 3.304076 -0.850928
v 0.243792 1.799098 -1.634115
v -0.254113 3.522286 -1.270241
v -0.254113 2.017308 -2.053429
v 0.243792 3.522286 -1.270241
v 0.243792 2.017308 -2.053429
vn -0.0000 0.8871 -0.4616
vn 1.0000 -0.0000 -0.0000
vn -0.0000 0.4616 0.8871
vn -0.0000 -0.8871 0.4616
vn -0.0000 -0.4616 -0.8871
vn -1.0000 -0.0000 -0.0000
vn -0.0000 0.8871 0.4616
vn -0.0000 0.4616 -0.8871
vn -0.0000 -0.8871 -0.4616
vn -0.0000 -0.4616 0.8871
vt 0.625000 0.500000
vt 0.875000 0.500000
vt 0.875000 0.750000
vt 0.625000 0.750000
vt 0.375000 0.750000
vt 0.625000 1.000000
vt 0.375000 1.000000
vt 0.375000 0.000000
vt 0.625000 0.000000
vt 0.625000 0.250000
vt 0.375000 0.250000
vt 0.125000 0.500000
vt 0.375000 0.500000
vt 0.125000 0.750000
s 0
usemtl Material
f 33/43/19 37/44/19 39/45/19 35/46/19
f 36/47/20 35/46/20 39/48/20 40/49/20
f 40/50/21 39/51/21 37/52/21 38/53/21
f 38/54/22 34/55/22 36/47/22 40/56/22
f 34/55/23 33/43/23 35/46/23 36/47/23
f 38/53/24 37/52/24 33/43/24 34/55/24
f 41/43/25 43/46/25 47/45/25 45/44/25
f 44/47/20 48/49/20 47/48/20 43/46/20
f 48/50/26 46/53/26 45/52/26 47/51/26
f 46/54/27 48/56/27 44/47/27 42/55/27
f 42/55/28 44/47/28 43/46/28 41/43/28
f 46/53/24 42/55/24 41/43/24 45/52/24
