# Blender 5.0.1
# www.blender.org
mtllib models/track_corner.mtl
o Cube
v 1.000000 0.147205 0.722568
v 1.000000 0.294202 0.722568
v 1.000000 0.147205 0.900250
v 1.000000 0.294202 0.900250
v -0.103220 0.294202 1.015812
v 0.096268 0.153418 1.011124
v 0.096268 0.294202 1.011124
v -0.103220 0.153418 1.015812
v 0.456692 0.294202 0.888675
v 0.395991 0.147205 0.730309
v 0.395991 0.294202 0.730309
v 0.456692 0.147205 0.888675
v 0.085729 0.294202 0.792395
v 0.227527 0.147205 0.913597
v 0.227527 0.294202 0.913597
v 0.085729 0.147205 0.792395
v 0.750000 0.294202 0.900250
v 0.750000 0.147205 0.722568
v 0.750000 0.294202 0.722568
v 0.750000 0.147205 0.900250
v -0.103220 0.160294 1.015812
v 0.096268 0.160294 1.011124
vn -0.0000 1.0000 -0.0000
vn 1.0000 -0.0000 -0.0000
vn -0.0000 -0.0000 -1.0000
vn 0.5964 -0.0000 0.8027
vn -0.0099 -0.9995 0.0289
vn -0.0000 -1.0000 -0.0000
vn -0.0394 -0.0000 0.9992
vn -0.1962 -0.0000 -0.9806
vn -0.7635 -0.0000 -0.6458
vn 0.1081 -0.0000 0.9941
vn -0.0000 -0.0000 1.0000
vn -0.0219 -0.0000 -0.9998
vn 0.0235 -0.0000 0.9997
vt 0.343750 0.500000
vt 0.375000 0.500000
vt 0.375000 0.750000
vt 0.343750 0.750000
vt 0.625000 0.500000
vt 0.625000 0.750000
vt 0.375000 0.468750
vt 0.625000 0.468750
vt 0.375000 0.843750
vt 0.625000 0.843750
vt 0.625000 0.875000
vt 0.375000 0.875000
vt 0.718750 0.500000
vt 0.750000 0.500000
vt 0.750000 0.750000
vt 0.718750 0.750000
vt 0.656250 0.500000
vt 0.687500 0.500000
vt 0.687500 0.750000
vt 0.656250 0.750000
vt 0.375000 0.781250
vt 0.625000 0.781250
vt 0.625000 0.812500
vt 0.375000 0.812500
vt 0.375000 0.406250
vt 0.625000 0.406250
vt 0.625000 0.437500
vt 0.375000 0.437500
vt 0.281250 0.500000
vt 0.312500 0.500000
vt 0.312500 0.750000
vt 0.281250 0.750000
vt 0.250000 0.500000
vt 0.250000 0.750000
vt 0.375000 0.375000
vt 0.625000 0.375000
s 0
usemtl Material
f 19/1/1 17/4/1 4/3/1 2/2/1
f 2/2/2 4/3/2 3/6/2 1/5/2
f 19/7/3 2/2/3 1/5/3 18/8/3
f 15/9/4 7/12/4 6/11/4 14/10/4
f 16/13/5 14/16/5 6/15/5 8/14/5
f 18/17/6 20/20/6 12/19/6 10/18/6
f 17/21/7 9/24/7 12/23/7 20/22/7
f 13/25/8 11/28/8 10/27/8 16/26/8
f 13/29/1 15/32/1 9/31/1 11/30/1
f 5/33/1 7/34/1 15/32/1 13/29/1
f 5/35/9 13/25/9 16/26/9 8/36/9
f 10/18/6 12/19/6 14/16/6 16/13/6
f 9/24/10 15/9/10 14/10/10 12/23/10
f 4/3/11 17/21/11 20/22/11 3/6/11
f 1/5/6 3/6/6 20/20/6 18/17/6
f 11/28/12 19/7/12 18/8/12 10/27/12
f 11/30/1 9/31/1 17/4/1 19/1/1
f 5/33/13 21/33/13 22/34/13 7/34/13
o Cube.001
v 1.014591 0.154875 -0.884504
v 1.014591 0.301872 -0.884504
v 1.014591 0.154875 -0.706822
v 1.014591 0.301872 -0.706822
v -0.724037 0.154875 1.012956
v -0.724037 0.301872 1.012956
v -0.562690 0.154875 1.012290
v -0.562690 0.301872 1.012290
v 0.014591 0.301872 -0.884504
v 0.014591 0.154875 -0.706822
v 0.014591 0.301872 -0.706822
v 0.014591 0.154875 -0.884504
v -0.552098 0.301872 -0.884504
v -0.553221 0.154875 -0.706822
v -0.553221 0.301872 -0.706822
v -0.552098 0.154875 -0.884504
v -0.716979 0.301872 -0.884504
v -0.551184 0.154875 0.255617
v -0.551184 0.301872 0.255617
v -0.716979 0.154875 -0.884504
v -0.234432 0.301872 -0.706822
v -0.234432 0.154875 -0.884504
v -0.234432 0.301872 -0.884504
v -0.234432 0.154875 -0.706822
v 0.514591 0.301872 -0.706822
v 0.514591 0.154875 -0.884504
v 0.514591 0.301872 -0.884504
v 0.514591 0.154875 -0.706822
v 0.264591 0.301872 -0.884504
v 0.264591 0.154875 -0.706822
v 0.264591 0.301872 -0.706822
v 0.264591 0.154875 -0.884504
v 0.764591 0.301872 -0.706822
v 0.764591 0.154875 -0.884504
v 0.764591 0.301872 -0.884504
v 0.764591 0.154875 -0.706822
vn -0.0000 -1.0000 -0.0000
vn 0.9999 -0.0000 0.0152
vn 0.0041 -0.0000 1.0000
vn -0.0000 1.0000 -0.0000
vn 1.0000 -0.0000 -0.0000
vn -0.0000 -0.0000 -1.0000
vn -0.0000 -0.0000 1.0000
vn -1.0000 -0.0000 -0.0037
vn 1.0000 -0.0000 -0.0021
vt 0.843628 0.500000
vt 0.875000 0.500000
vt 0.875000 0.750000
vt 0.843628 0.750000
vt 0.375000 0.968628
vt 0.625000 0.968628
vt 0.625000 1.000000
vt 0.375000 1.000000
vt 0.375000 0.000000
vt 0.625000 0.000000
vt 0.625000 0.250000
vt 0.375000 0.250000
vt 0.343750 0.500000
vt 0.375000 0.500000
vt 0.375000 0.750000
vt 0.343750 0.750000
vt 0.625000 0.500000
vt 0.625000 0.750000
vt 0.375000 0.468750
vt 0.625000 0.468750
vt 0.375000 0.343872
vt 0.625000 0.343872
vt 0.625000 0.375000
vt 0.375000 0.375000
vt 0.218872 0.500000
vt 0.250000 0.500000
vt 0.250000 0.750000
vt 0.218872 0.750000
vt 0.375000 0.843750
vt 0.625000 0.843750
vt 0.625000 0.875000
vt 0.375000 0.875000
vt 0.718750 0.500000
vt 0.750000 0.500000
vt 0.750000 0.750000
vt 0.718750 0.750000
vt 0.156372 0.500000
vt 0.187744 0.500000
vt 0.187744 0.750000
vt 0.156372 0.750000
vt 0.375000 0.281372
vt 0.625000 0.281372
vt 0.625000 0.312744
vt 0.375000 0.312744
vt 0.375000 0.906128
vt 0.625000 0.906128
vt 0.625000 0.937256
vt 0.375000 0.937256
vt 0.781128 0.500000
vt 0.812256 0.500000
vt 0.812256 0.750000
vt 0.781128 0.750000
vt 0.125000 0.500000
vt 0.125000 0.750000
vt 0.656250 0.500000
vt 0.687500 0.500000
vt 0.687500 0.750000
vt 0.656250 0.750000
vt 0.375000 0.781250
vt 0.625000 0.781250
vt 0.625000 0.812500
vt 0.375000 0.812500
vt 0.375000 0.406250
vt 0.625000 0.406250
vt 0.625000 0.437500
vt 0.375000 0.437500
vt 0.281250 0.500000
vt 0.312500 0.500000
vt 0.312500 0.750000
vt 0.281250 0.750000
s 0
usemtl Material
f 42/37/14 40/40/14 29/39/14 27/38/14
f 41/41/15 30/44/15 29/43/15 40/42/15
f 30/45/16 28/48/16 27/47/16 29/46/16
f 57/49/17 55/52/17 26/51/17 24/50/17
f 24/50/18 26/51/18 25/54/18 23/53/18
f 57/55/19 24/50/19 23/53/19 56/56/19
f 45/57/19 31/60/19 34/59/19 44/58/19
f 45/61/17 43/64/17 33/63/17 31/62/17
f 53/65/20 33/68/20 32/67/20 52/66/20
f 54/69/14 52/72/14 32/71/14 34/70/14
f 39/73/17 41/76/17 37/75/17 35/74/17
f 39/77/19 35/80/19 38/79/19 42/78/19
f 43/81/20 37/84/20 36/83/20 46/82/20
f 44/85/14 46/88/14 36/87/14 38/86/14
f 28/48/21 39/77/21 42/78/21 27/47/21
f 28/89/17 30/90/17 41/76/17 39/73/17
f 37/84/22 41/41/22 40/42/22 36/83/22
f 38/86/14 36/87/14 40/40/14 42/37/14
f 34/70/14 32/71/14 46/88/14 44/85/14
f 33/68/20 43/81/20 46/82/20 32/67/20
f 35/74/17 37/75/17 43/64/17 45/61/17
f 35/80/19 45/57/19 44/58/19 38/79/19
f 56/91/14 58/94/14 50/93/14 48/92/14
f 55/95/20 47/98/20 50/97/20 58/96/20
f 51/99/19 49/102/19 48/101/19 54/100/19
f 51/103/17 53/106/17 47/105/17 49/104/17
f 31/62/17 33/63/17 53/106/17 51/103/17
f 31/60/19 51/99/19 54/100/19 34/59/19
f 48/92/14 50/93/14 52/72/14 54/69/14
f 47/98/20 53/65/20 52/66/20 50/97/20
f 26/51/20 55/95/20 58/96/20 25/54/20
f 23/53/14 25/54/14 58/94/14 56/91/14
f 49/102/19 57/55/19 56/56/19 48/101/19
f 49/104/17 47/105/17 55/52/17 57/49/17
o Cube.002
v -0.446484 0.003101 1.009909
v -0.446484 0.150098 1.009909
v -0.820254 0.003101 1.009909
v -0.820254 0.150098 1.009909
v -0.446484 0.003101 -0.990091
v -0.446484 0.150098 -0.990091
v -0.820254 0.003101 -0.990091
v -0.820254 0.150098 -0.990091
vn -0.0000 -1.0000 -0.0000
vn -1.0000 -0.0000 -0.0000
vn -0.0000 -0.0000 -1.0000
vn -0.0000 1.0000 -0.0000
vn -0.0000 -0.0000 1.0000
vn 1.0000 -0.0000 -0.0000
vt 0.625000 0.500000
vt 0.875000 0.500000
vt 0.875000 0.750000
vt 0.625000 0.750000
vt 0.375000 0.750000
vt 0.625000 1.000000
vt 0.375000 1.000000
vt 0.375000 0.000000
vt 0.625000 0.000000
vt 0.625000 0.250000
vt 0.375000 0.250000
vt 0.125000 0.500000
vt 0.375000 0.500000
vt 0.125000 0.750000
s 0
usemtl Material.001
f 59/107/23 61/110/23 65/109/23 63/108/23
f 62/111/24 66/113/24 65/112/24 61/110/24
f 66/114/25 64/117/25 63/116/25 65/115/25
f 64/118/26 66/120/26 62/111/26 60/119/26
f 60/119/27 62/111/27 61/110/27 59/107/27
f 64/117/28 60/119/28 59/107/28 63/116/28
o Cube.003
v 0.861111 0.003101 1.009909
v 0.861111 0.150098 1.009909
v 0.487341 0.003101 1.009909
v 0.487341 0.150098 1.009909
v 0.861111 0.003101 -0.990091
v 0.861111 0.150098 -0.990091
v 0.487341 0.003101 -0.990091
v 0.487341 0.150098 -0.990091
vn -0.0000 -1.0000 -0.0000
vn -1.0000 -0.0000 -0.0000
vn -0.0000 -0.0000 -1.0000
vn -0.0000 1.0000 -0.0000
vn -0.0000 -0.0000 1.0000
vn 1.0000 -0.0000 -0.0000
vt 0.625000 0.500000
vt 0.875000 0.500000
vt 0.875000 0.750000
vt 0.625000 0.750000
vt 0.375000 0.750000
vt 0.625000 1.000000
vt 0.375000 1.000000
vt 0.375000 0.000000
vt 0.625000 0.000000
vt 0.625000 0.250000
vt 0.375000 0.250000
vt 0.125000 0.500000
vt 0.375000 0.500000
vt 0.125000 0.750000
s 0
usemtl Material.001
f 67/121/29 69/124/29 73/123/29 71/122/29
f 70/125/30 74/127/30 73/126/30 69/124/30
f 74/128/31 72/131/31 71/130/31 73/129/31
f 72/132/32 74/134/32 70/125/32 68/133/32
f 68/133/33 70/125/33 69/124/33 67/121/33
f 72/131/34 68/133/34 67/121/34 71/130/34
o Cube.004
v 0.201476 0.003101 1.009909
v 0.201476 0.150098 1.009909
v -0.172294 0.003101 1.009909
v -0.172294 0.150098 1.009909
v 0.201476 0.003101 -0.990091
v 0.201476 0.150098 -0.990091
v -0.172294 0.003101 -0.990091
v -0.172294 0.150098 -0.990091
vn -0.0000 -1.0000 -0.0000
vn -1.0000 -0.0000 -0.0000
vn -0.0000 -0.0000 -1.0000
vn -0.0000 1.0000 -0.0000
vn -0.0000 -0.0000 1.0000
vn 1.0000 -0.0000 -0.0000
vt 0.625000 0.500000
vt 0.875000 0.500000
vt 0.875000 0.750000
vt 0.625000 0.750000
vt 0.375000 0.750000
vt 0.625000 1.000000
vt 0.375000 1.000000
vt 0.375000 0.000000
vt 0.625000 0.000000
vt 0.625000 0.250000
vt 0.375000 0.250000
vt 0.125000 0.500000
vt 0.375000 0.500000
vt 0.125000 0.750000
s 0
usemtl Material.001
f 75/135/35 77/138/35 81/137/35 79/136/35
f 78/139/36 82/141/36 81/140/36 77/138/36
f 82/142/37 80/145/37 79/144/37 81/143/37
f 80/146/38 82/148/38 78/139/38 76/147/38
f 76/147/39 78/139/39 77/138/39 75/135/39
f 80/145/40 76/147/40 75/135/40 79/144/40
