<?xml version="1.0" encoding="UTF-8" standalone="no"?>
<!-- Created with Inkscape (http://www.inkscape.org/) -->

<svg
   width="192mm"
   height="192mm"
   viewBox="0 0 192 192"
   version="1.1"
   id="svg5"
   inkscape:version="1.1.2 (0a00cf5339, 2022-02-04)"
   sodipodi:docname="dead_tank.svg"
   xmlns:inkscape="http://www.inkscape.org/namespaces/inkscape"
   xmlns:sodipodi="http://sodipodi.sourceforge.net/DTD/sodipodi-0.dtd"
   xmlns="http://www.w3.org/2000/svg"
   xmlns:svg="http://www.w3.org/2000/svg">
  <sodipodi:namedview
     id="namedview7"
     pagecolor="#ffffff"
     bordercolor="#666666"
     borderopacity="1.0"
     inkscape:pageshadow="2"
     inkscape:pageopacity="0.0"
     inkscape:pagecheckerboard="0"
     inkscape:document-units="mm"
     showgrid="false"
     inkscape:zoom="1.0489304"
     inkscape:cx="222.60772"
     inkscape:cy="602.04185"
     inkscape:window-width="2623"
     inkscape:window-height="1758"
     inkscape:window-x="877"
     inkscape:window-y="113"
     inkscape:window-maximized="0"
     inkscape:current-layer="layer1" />
  <defs
     id="defs2" />
  <g
     inkscape:label="Layer 1"
     inkscape:groupmode="layer"
     id="layer1">
    <path
       id="rect924"
       style="fill:#8b4513;stroke-width:18.2582;stroke-linecap:square;stroke-dashoffset:299.977;-inkscape-stroke:none;stop-color:#000000"
       d="m 162.96729,121.35992 c 8.84167,-13.24769 11.8181,-25.278912 3.72079,-37.813772 -3.80358,-5.48338 -8.55624,-12.97774 -15.15481,-16.26431 l 4.185,-13.9568 -50.10643,-33.43379 c -2.11343,2.99911 -3.64394,5.1592 -5.22297,7.38893 a 6.5216463,7.6180917 88.764713 0 0 -3.69871,-5.19591 6.5216463,7.6180917 88.764713 0 0 -10.445769,2.31629 6.5216463,7.6180917 88.764713 0 0 2.6354,8.92822 6.5216463,7.6180917 88.764713 0 0 7.010569,0.31478 c -1.11652,1.57848 -2.06622,2.91709 -3.4706,4.91001 -3.874339,-9.43241 -18.770759,-12.72521 -27.905706,-6.81828 -10.730107,5.82392 -12.045524,20.78855 -1.421716,27.21828 0.01612,0.0203 0.03901,0.0357 0.05559,0.0556 a 14.197164,16.728926 60.03757 0 0 -0.560525,-0.31088 14.197164,16.728926 60.03757 0 0 -22.461689,6.58679 14.197164,16.728926 60.03757 0 0 0.835712,17.71015 c -4.808713,-0.69629 -9.924962,0.11446 -13.937144,2.71362 -10.730106,5.82392 -12.04552,20.788552 -1.421716,27.218292 2.767628,3.4895 12.399955,2.04186 12.82835,3.84655 -1.294232,1.86487 -2.217099,3.17604 -3.280078,4.70614 a 7.7696116,8.958571 81.505685 0 0 -4.15935,-5.575 7.7696116,8.958571 81.505685 0 0 -12.304217,2.9532 7.7696116,8.958571 81.505685 0 0 2.873314,10.62438 7.7696116,8.958571 81.505685 0 0 7.703489,0.4441 c -1.201658,1.71999 -2.269461,3.26882 -3.767193,5.40485 19.114876,7.63784 38.229746,15.27569 57.34462,22.91353 L 105.0679,129.46822 c 3.49948,1.61868 7.51586,3.39493 11.71034,4.94502 l -23.55374,33.91007 6.1785,3.12295 24.1769,-34.80725 c 5.10692,1.42484 10.21578,2.23412 14.76036,1.77392 14.39696,-1.99488 16.68625,-5.92534 24.62704,-17.05308 z m -87.046599,-58.559792 -6.656925,9.5839 a 14.197164,16.728926 60.03757 0 0 -4.109223,-11.98801 c 3.86752,1.6278 10.414508,0.92279 10.766148,2.40411 z m -14.507647,20.8865 -6.345727,9.13588 c -0.918745,-2.39453 -2.545895,-4.40705 -4.612008,-5.98949 a 14.197164,16.728926 60.03757 0 0 10.957735,-3.14639 z" />
  </g>
</svg>
