<?xml version="1.0" encoding="UTF-8" standalone="no"?>
<!-- Created with Inkscape (http://www.inkscape.org/) -->

<svg
   width="210mm"
   height="297mm"
   viewBox="0 0 210 297"
   version="1.1"
   id="svg5"
   inkscape:version="1.1.2 (0a00cf5339, 2022-02-04)"
   sodipodi:docname="dead_car.svg"
   xmlns:inkscape="http://www.inkscape.org/namespaces/inkscape"
   xmlns:sodipodi="http://sodipodi.sourceforge.net/DTD/sodipodi-0.dtd"
   xmlns="http://www.w3.org/2000/svg"
   xmlns:svg="http://www.w3.org/2000/svg">
  <sodipodi:namedview
     id="namedview7"
     pagecolor="#ffffff"
     bordercolor="#666666"
     borderopacity="1.0"
     inkscape:pageshadow="2"
     inkscape:pageopacity="0.0"
     inkscape:pagecheckerboard="0"
     inkscape:document-units="mm"
     showgrid="false"
     inkscape:zoom="1.0489304"
     inkscape:cx="388.96766"
     inkscape:cy="602.04185"
     inkscape:window-width="2623"
     inkscape:window-height="1758"
     inkscape:window-x="877"
     inkscape:window-y="113"
     inkscape:window-maximized="0"
     inkscape:current-layer="layer1" />
  <defs
     id="defs2" />
  <g
     inkscape:label="Layer 1"
     inkscape:groupmode="layer"
     id="layer1">
    <path
       id="rect924"
       style="fill:#8b4513;stroke-width:21.6659;stroke-linecap:square;stroke-dashoffset:299.977;-inkscape-stroke:none;stop-color:#000000"
       d="M 170.60858,183.10372 A 52.62733,27.026562 41.86073 0 0 110.15412,156.5083 52.62733,27.026562 41.86073 0 0 109.27,156.98226 l -15.142951,-17.03029 -74.273552,25.26151 21.435389,24.44726 a 24.671916,18.075862 3.8687284 0 0 -14.747387,2.58393 24.671916,18.075862 3.8687284 0 0 -6.721643,24.8996 24.671916,18.075862 3.8687284 0 0 34.200409,6.00397 24.671916,18.075862 3.8687284 0 0 9.590298,-8.89183 l 22.22357,24.99339 a 24.671916,18.075862 3.8687284 0 0 -15.22634,2.55335 24.671916,18.075862 3.8687284 0 0 -6.721642,24.8996 24.671916,18.075862 3.8687284 0 0 34.200412,6.00397 24.671916,18.075862 3.8687284 0 0 9.590297,-8.89183 l 12.8767,14.48158 8.9058,10.08102 64.24853,-36.43344 -15.79813,-17.76714 a 52.62733,27.026562 41.86073 0 0 0.96723,-0.38049 52.62733,27.026562 41.86073 0 0 -8.26841,-50.6927 z" />
  </g>
</svg>
