<?xml version="1.0" encoding="UTF-8" standalone="no"?>
<!-- Created with Inkscape (http://www.inkscape.org/) -->

<svg
   width="192mm"
   height="192mm"
   viewBox="0 0 192 192"
   version="1.1"
   id="svg5"
   inkscape:version="1.1.2 (0a00cf5339, 2022-02-04)"
   sodipodi:docname="dead_soldier.svg"
   xmlns:inkscape="http://www.inkscape.org/namespaces/inkscape"
   xmlns:sodipodi="http://sodipodi.sourceforge.net/DTD/sodipodi-0.dtd"
   xmlns="http://www.w3.org/2000/svg"
   xmlns:svg="http://www.w3.org/2000/svg">
  <sodipodi:namedview
     id="namedview7"
     pagecolor="#ffffff"
     bordercolor="#666666"
     borderopacity="1.0"
     inkscape:pageshadow="2"
     inkscape:pageopacity="0.0"
     inkscape:pagecheckerboard="0"
     inkscape:document-units="mm"
     showgrid="false"
     inkscape:zoom="1.0489304"
     inkscape:cx="390.39769"
     inkscape:cy="602.04185"
     inkscape:window-width="2623"
     inkscape:window-height="1758"
     inkscape:window-x="877"
     inkscape:window-y="113"
     inkscape:window-maximized="0"
     inkscape:current-layer="layer1" />
  <defs
     id="defs2" />
  <g
     inkscape:label="Layer 1"
     inkscape:groupmode="layer"
     id="layer1">
    <path
       id="path880"
       style="fill:#8b4513;stroke-width:19.7738;stroke-linecap:square;stroke-dashoffset:299.977;-inkscape-stroke:none;stop-color:#000000"
       d="m 186.86203,77.55353 a 22.67803,21.287327 89.070021 0 0 -21.64791,-22.334804 22.67803,21.287327 89.070021 0 0 -10.98855,3.481562 l -3.58865,-8.635899 -16.81569,6.975192 1.39478,3.356564 A 30.237061,29.737866 89.033123 0 0 108.89555,79.282292 L 95.636338,79.494269 79.116862,38.971988 68.165192,43.428667 82.950894,79.697084 54.456628,80.152649 14.768099,60.146488 6.2017968,77.109747 38.580129,93.431137 8.556675,109.78956 l 9.105166,16.68073 38.1559,-20.79009 32.75353,-0.52365 9.221187,30.27074 -43.824857,-7.53392 -0.851789,4.94463 46.313182,7.96172 1.046286,3.43432 6.8376,-2.07924 49.13518,8.44672 0.85139,-4.94463 -46.46315,-7.9875 -9.96479,-32.7095 9.42455,-0.15068 a 30.237061,29.737866 89.033123 0 0 26.67149,15.96204 30.237061,29.737866 89.033123 0 0 19.91586,-8.23212 l 0.97191,2.33857 16.8157,-6.97481 -3.38646,-8.149153 A 22.67803,21.287327 89.070021 0 0 186.86203,77.55353 Z" />
  </g>
</svg>
