<?xml version="1.0" encoding="UTF-8" standalone="no"?>
<!-- Created with Inkscape (http://www.inkscape.org/) -->

<svg
   width="192mm"
   height="192mm"
   viewBox="0 0 192 192"
   version="1.1"
   id="svg5"
   inkscape:version="1.1.2 (0a00cf5339, 2022-02-04)"
   sodipodi:docname="dead_mercenary.svg"
   xmlns:inkscape="http://www.inkscape.org/namespaces/inkscape"
   xmlns:sodipodi="http://sodipodi.sourceforge.net/DTD/sodipodi-0.dtd"
   xmlns="http://www.w3.org/2000/svg"
   xmlns:svg="http://www.w3.org/2000/svg">
  <sodipodi:namedview
     id="namedview7"
     pagecolor="#ffffff"
     bordercolor="#666666"
     borderopacity="1.0"
     inkscape:pageshadow="2"
     inkscape:pageopacity="0.0"
     inkscape:pagecheckerboard="0"
     inkscape:document-units="mm"
     showgrid="false"
     inkscape:zoom="1.0489304"
     inkscape:cx="389.44433"
     inkscape:cy="602.04185"
     inkscape:window-width="2623"
     inkscape:window-height="1758"
     inkscape:window-x="877"
     inkscape:window-y="113"
     inkscape:window-maximized="0"
     inkscape:current-layer="layer1"
     width="192mm" />
  <defs
     id="defs2" />
  <g
     inkscape:label="Layer 1"
     inkscape:groupmode="layer"
     id="layer1">
    <path
       id="path880"
       style="fill:#8b4513;stroke-width:20.2929;stroke-linecap:square;stroke-dashoffset:299.977;-inkscape-stroke:none;stop-color:#000000"
       d="m 187.84265,84.884138 c -0.5397,-12.998916 -10.63134,-23.116605 -22.54029,-22.598427 -3.94577,0.176487 -7.7656,1.531434 -11.04345,3.91724 l -3.8691,-8.8692 -16.85548,7.705224 1.50379,3.447217 c -11.80549,0.835355 -20.9624,0.744815 -25.09101,12.291454 L 96.514496,81.362033 90.039112,69.861446 111.78932,68.915202 110.1095,28.454508 50.206023,31.060607 51.885843,71.521301 76.961516,70.430384 83.663141,81.921132 54.796213,83.17699 12.956481,71.535877 4.7301213,89.386374 37.984237,105.44552 7.9946333,123.25738 l 9.6762257,17.07166 38.993895,-18.79487 33.1819,-1.44358 9.277836,27.33832 -45.110056,-18.44185 -9.918342,24.21686 56.831348,-0.24107 1.15267,3.53757 6.8741,-2.347 50.02579,7.4215 0.73008,-5.15804 -47.30533,-7.01803 -10.09698,-29.85039 9.54781,-0.41537 c 5.5956,10.21187 15.30943,12.48194 26.57949,12.00035 7.51442,-0.33004 14.6349,-3.57418 19.96375,-9.09562 l 5.37962,10.02293 16.8555,-7.70481 -7.98286,-15.99049 c 9.39134,-3.11029 15.63652,-12.76336 15.19157,-23.481312 z" />
  </g>
</svg>
