<?xml version="1.0" encoding="UTF-8" standalone="no"?>
<!-- Created with Inkscape (http://www.inkscape.org/) -->

<svg
   width="192mm"
   height="192mm"
   viewBox="0 0 192 192"
   version="1.1"
   id="svg5"
   inkscape:version="1.1.2 (0a00cf5339, 2022-02-04)"
   sodipodi:docname="drylands_border.svg"
   xmlns:inkscape="http://www.inkscape.org/namespaces/inkscape"
   xmlns:sodipodi="http://sodipodi.sourceforge.net/DTD/sodipodi-0.dtd"
   xmlns="http://www.w3.org/2000/svg"
   xmlns:svg="http://www.w3.org/2000/svg">
  <sodipodi:namedview
     id="namedview7"
     pagecolor="#ffffff"
     bordercolor="#666666"
     borderopacity="1.0"
     inkscape:pageshadow="2"
     inkscape:pageopacity="0.0"
     inkscape:pagecheckerboard="0"
     inkscape:document-units="mm"
     showgrid="false"
     inkscape:zoom="1.0489304"
     inkscape:cx="237.38467"
     inkscape:cy="602.04185"
     inkscape:window-width="2623"
     inkscape:window-height="1758"
     inkscape:window-x="280"
     inkscape:window-y="160"
     inkscape:window-maximized="0"
     inkscape:current-layer="layer1"
     width="192mm" />
  <defs
     id="defs2" />
  <g
     inkscape:label="Layer 1"
     inkscape:groupmode="layer"
     id="layer1">
    <rect
       style="fill:#bdb76b;stroke-width:53.09;stroke-linecap:square;stroke-dashoffset:1133.77;stop-color:#000000"
       id="rect1680"
       width="192"
       height="192"
       x="0"
       y="0" />
    <g
       id="g2804"
       transform="matrix(0.9271299,0,0,0.94727418,41.07949,-11.47288)">
      <rect
         style="fill:#808000;stroke-width:30.5869;stroke-linecap:square;stroke-dashoffset:1133.77;stop-color:#000000"
         id="rect2794"
         width="11.924672"
         height="84.242249"
         x="58.598694"
         y="67.4459" />
      <path
         style="fill:#2e8b57;stroke:none;stroke-width:0.264583px;stroke-linecap:butt;stroke-linejoin:miter;stroke-opacity:1"
         d="m 60.85692,93.974546 c 0,0 5.947989,-29.447881 19.072962,-38.569111 13.124971,-9.121233 58.526258,-12.48869 58.526258,-12.48869 l -25.74429,8.387399 c 0,0 -16.747628,3.008003 -24.400092,14.475903 C 75.044616,85.662042 60.85692,93.974546 60.85692,93.974546 Z"
         id="path2796"
         sodipodi:nodetypes="csccsc" />
      <path
         style="fill:#2e8b57;stroke:none;stroke-width:0.264583px;stroke-linecap:butt;stroke-linejoin:miter;stroke-opacity:1"
         d="m 63.502755,93.974546 c 0,0 3.376941,-29.852178 -6.315192,-42.561396 C 47.495428,38.703928 5.3187795,21.564843 5.3187795,21.564843 L 27.246424,37.448651 c 0,0 15.016183,8.002863 18.779703,21.265925 6.524847,22.994284 17.476628,35.25997 17.476628,35.25997 z"
         id="path2798"
         sodipodi:nodetypes="csccsc" />
      <path
         style="fill:#2e8b57;stroke:none;stroke-width:0.228148px;stroke-linecap:butt;stroke-linejoin:miter;stroke-opacity:1"
         d="m 62.894957,84.171004 c 0,0 -0.01967,-25.9894 9.478301,-35.97911 9.497976,-9.989713 47.167162,-20.650159 47.167162,-20.650159 L 99.287047,39.0788 c 0,0 -13.5938,5.42954 -18.081101,16.467993 -7.779672,19.137459 -18.310989,28.624211 -18.310989,28.624211 z"
         id="path2800"
         sodipodi:nodetypes="csccsc" />
      <path
         style="fill:#2e8b57;stroke:none;stroke-width:0.228148px;stroke-linecap:butt;stroke-linejoin:miter;stroke-opacity:1"
         d="m 69.188144,85.840143 c 0,0 7.073671,-25.008248 0.643949,-37.201074 C 63.402392,36.446247 30.041277,15.960922 30.041277,15.960922 l 16.361248,16.601583 c 0,0 11.609579,8.91566 12.932057,20.757719 2.292791,20.530677 9.853562,32.519919 9.853562,32.519919 z"
         id="path2802"
         sodipodi:nodetypes="csccsc" />
    </g>
    <g
       id="g2792"
       transform="matrix(1.012877,0,0,0.870139,-1.7034478,35.314485)">
      <rect
         style="fill:#8b4513;stroke-width:30.5869;stroke-linecap:square;stroke-dashoffset:1133.77;stop-color:#000000"
         id="rect2367"
         width="11.924672"
         height="84.242249"
         x="58.598694"
         y="67.4459" />
      <path
         style="fill:#008000;stroke:none;stroke-width:0.264583px;stroke-linecap:butt;stroke-linejoin:miter;stroke-opacity:1"
         d="m 60.85692,93.974546 c 0,0 5.947989,-29.447881 19.072962,-38.569111 13.124971,-9.121233 58.526258,-12.48869 58.526258,-12.48869 l -25.74429,8.387399 c 0,0 -16.747628,3.008003 -24.400092,14.475903 C 75.044616,85.662042 60.85692,93.974546 60.85692,93.974546 Z"
         id="path2424"
         sodipodi:nodetypes="csccsc" />
      <path
         style="fill:#008000;stroke:none;stroke-width:0.264583px;stroke-linecap:butt;stroke-linejoin:miter;stroke-opacity:1"
         d="m 63.502755,93.974546 c 0,0 3.376941,-29.852178 -6.315192,-42.561396 C 47.495428,38.703928 5.3187795,21.564843 5.3187795,21.564843 L 27.246424,37.448651 c 0,0 15.016183,8.002863 18.779703,21.265925 6.524847,22.994284 17.476628,35.25997 17.476628,35.25997 z"
         id="path2781"
         sodipodi:nodetypes="csccsc" />
      <path
         style="fill:#008000;stroke:none;stroke-width:0.228148px;stroke-linecap:butt;stroke-linejoin:miter;stroke-opacity:1"
         d="m 62.894957,84.171004 c 0,0 -0.01967,-25.9894 9.478301,-35.97911 9.497976,-9.989713 47.167162,-20.650159 47.167162,-20.650159 L 99.287047,39.0788 c 0,0 -13.5938,5.42954 -18.081101,16.467993 -7.779672,19.137459 -18.310989,28.624211 -18.310989,28.624211 z"
         id="path2783"
         sodipodi:nodetypes="csccsc" />
      <path
         style="fill:#008000;stroke:none;stroke-width:0.228148px;stroke-linecap:butt;stroke-linejoin:miter;stroke-opacity:1"
         d="m 69.188144,85.840143 c 0,0 7.073671,-25.008248 0.643949,-37.201074 C 63.402392,36.446247 30.041277,15.960922 30.041277,15.960922 l 16.361248,16.601583 c 0,0 11.609579,8.91566 12.932057,20.757719 2.292791,20.530677 9.853562,32.519919 9.853562,32.519919 z"
         id="path2785"
         sodipodi:nodetypes="csccsc" />
    </g>
    <g
       id="g2816"
       transform="matrix(0.93897913,0,0,0.91392935,59.006893,52.152121)">
      <rect
         style="fill:#a0522d;stroke-width:30.5869;stroke-linecap:square;stroke-dashoffset:1133.77;stop-color:#000000"
         id="rect2806"
         width="11.924672"
         height="84.242249"
         x="58.598694"
         y="67.4459" />
      <path
         style="fill:#556b2f;stroke:none;stroke-width:0.264583px;stroke-linecap:butt;stroke-linejoin:miter;stroke-opacity:1"
         d="m 60.85692,93.974546 c 0,0 5.947989,-29.447881 19.072962,-38.569111 13.124971,-9.121233 58.526258,-12.48869 58.526258,-12.48869 l -25.74429,8.387399 c 0,0 -16.747628,3.008003 -24.400092,14.475903 C 75.044616,85.662042 60.85692,93.974546 60.85692,93.974546 Z"
         id="path2808"
         sodipodi:nodetypes="csccsc" />
      <path
         style="fill:#556b2f;stroke:none;stroke-width:0.264583px;stroke-linecap:butt;stroke-linejoin:miter;stroke-opacity:1"
         d="m 63.502755,93.974546 c 0,0 3.376941,-29.852178 -6.315192,-42.561396 C 47.495428,38.703928 5.3187795,21.564843 5.3187795,21.564843 L 27.246424,37.448651 c 0,0 15.016183,8.002863 18.779703,21.265925 6.524847,22.994284 17.476628,35.25997 17.476628,35.25997 z"
         id="path2810"
         sodipodi:nodetypes="csccsc" />
      <path
         style="fill:#556b2f;stroke:none;stroke-width:0.228148px;stroke-linecap:butt;stroke-linejoin:miter;stroke-opacity:1"
         d="m 62.894957,84.171004 c 0,0 -0.01967,-25.9894 9.478301,-35.97911 9.497976,-9.989713 47.167162,-20.650159 47.167162,-20.650159 L 99.287047,39.0788 c 0,0 -13.5938,5.42954 -18.081101,16.467993 -7.779672,19.137459 -18.310989,28.624211 -18.310989,28.624211 z"
         id="path2812"
         sodipodi:nodetypes="csccsc" />
      <path
         style="fill:#556b2f;stroke:none;stroke-width:0.228148px;stroke-linecap:butt;stroke-linejoin:miter;stroke-opacity:1"
         d="m 69.188144,85.840143 c 0,0 7.073671,-25.008248 0.643949,-37.201074 C 63.402392,36.446247 30.041277,15.960922 30.041277,15.960922 l 16.361248,16.601583 c 0,0 11.609579,8.91566 12.932057,20.757719 2.292791,20.530677 9.853562,32.519919 9.853562,32.519919 z"
         id="path2814"
         sodipodi:nodetypes="csccsc" />
    </g>
  </g>
</svg>
