<?xml version="1.0" encoding="UTF-8" standalone="no"?>
<!-- Created with Inkscape (http://www.inkscape.org/) -->

<svg
   width="192mm"
   height="192mm"
   viewBox="0 0 192 192"
   version="1.1"
   id="svg5"
   inkscape:version="1.1.2 (0a00cf5339, 2022-02-04)"
   sodipodi:docname="frostbite_border.svg"
   xmlns:inkscape="http://www.inkscape.org/namespaces/inkscape"
   xmlns:sodipodi="http://sodipodi.sourceforge.net/DTD/sodipodi-0.dtd"
   xmlns="http://www.w3.org/2000/svg"
   xmlns:svg="http://www.w3.org/2000/svg">
  <sodipodi:namedview
     id="namedview7"
     pagecolor="#ffffff"
     bordercolor="#666666"
     borderopacity="1.0"
     inkscape:pageshadow="2"
     inkscape:pageopacity="0.0"
     inkscape:pagecheckerboard="0"
     inkscape:document-units="mm"
     showgrid="false"
     inkscape:zoom="1.4834116"
     inkscape:cx="242.68382"
     inkscape:cy="292.23177"
     inkscape:window-width="2623"
     inkscape:window-height="1758"
     inkscape:window-x="1211"
     inkscape:window-y="235"
     inkscape:window-maximized="0"
     inkscape:current-layer="layer1"
     width="192mm" />
  <defs
     id="defs2" />
  <g
     inkscape:label="Layer 1"
     inkscape:groupmode="layer"
     id="layer1">
    <g
       id="g4024"
       transform="translate(20.332086,1.5901354)">
      <g
         id="g1477"
         transform="translate(72.741722,8.1853086)">
        <path
           style="fill:#803300;stroke:#000000;stroke-width:0.264583px;stroke-linecap:butt;stroke-linejoin:miter;stroke-opacity:1"
           d="m 34.356765,148.67407 c 0,0 12.217393,-11.92174 14.008971,-32.10137 C 50.157316,96.393068 44.20153,72.480997 44.20153,72.480997 l 23.994476,-1.835022 c 0,0 -4.361152,11.137993 -4.552817,25.634473 -0.191662,14.496492 -2.209959,28.939112 2.260507,36.328872 4.470468,7.38976 14.708586,15.99971 14.708586,15.99971 z"
           id="path1057" />
        <g
           id="g1022"
           transform="translate(-18.508343,-21.838252)"
           style="fill:#668000" />
      </g>
      <path
         style="fill:#228b22;stroke:none;stroke-width:0.343584px;stroke-linecap:butt;stroke-linejoin:miter;stroke-opacity:1"
         d="M 79.845044,117.77337 C 100.64666,96.221761 118.24116,88.462219 118.24116,88.462219 L 89.594582,94.980561 117.98268,64.631914 94.664471,66.03473 124.31154,36.013873 106.24972,34.68708 128.6922,7.9222695 l 21.54777,27.2635375 -15.01305,0.467418 24.83468,27.830629 -20.1036,0.436139 33.55987,27.581229 -33.44647,3.496629 38.96856,19.751749 -54.22833,-1.09281 z"
         id="path1583"
         sodipodi:nodetypes="ccccccccccccccccc" />
    </g>
    <g
       id="g4034"
       transform="translate(-36.242532,-9.244781)">
      <g
         id="g4030"
         transform="translate(72.741722,8.1853086)">
        <path
           style="fill:#803300;stroke:#000000;stroke-width:0.264583px;stroke-linecap:butt;stroke-linejoin:miter;stroke-opacity:1"
           d="m 34.356765,148.67407 c 0,0 12.217393,-11.92174 14.008971,-32.10137 C 50.157316,96.393068 44.20153,72.480997 44.20153,72.480997 l 23.994476,-1.835022 c 0,0 -4.361152,11.137993 -4.552817,25.634473 -0.191662,14.496492 -2.209959,28.939112 2.260507,36.328872 4.470468,7.38976 14.708586,15.99971 14.708586,15.99971 z"
           id="path4026" />
        <g
           id="g4028"
           transform="translate(-18.508343,-21.838252)"
           style="fill:#668000" />
      </g>
      <path
         style="fill:#006400;stroke:none;stroke-width:0.343584px;stroke-linecap:butt;stroke-linejoin:miter;stroke-opacity:1"
         d="M 79.845044,117.77337 C 100.64666,96.221761 118.24116,88.462219 118.24116,88.462219 L 89.594582,94.980561 117.98268,64.631914 94.664471,66.03473 124.31154,36.013873 106.24972,34.68708 128.6922,7.9222695 l 21.54777,27.2635375 -15.01305,0.467418 24.83468,27.830629 -20.1036,0.436139 33.55987,27.581229 -33.44647,3.496629 38.96856,19.751749 -54.22833,-1.09281 z"
         id="path4032"
         sodipodi:nodetypes="ccccccccccccccccc" />
    </g>
    <g
       id="g4124"
       transform="translate(-76.804981,21.136724)">
      <g
         id="g4120"
         transform="translate(72.741722,8.1853086)">
        <path
           style="fill:#803300;stroke:#000000;stroke-width:0.264583px;stroke-linecap:butt;stroke-linejoin:miter;stroke-opacity:1"
           d="m 34.356765,148.67407 c 0,0 12.217393,-11.92174 14.008971,-32.10137 C 50.157316,96.393068 44.20153,72.480997 44.20153,72.480997 l 23.994476,-1.835022 c 0,0 -4.361152,11.137993 -4.552817,25.634473 -0.191662,14.496492 -2.209959,28.939112 2.260507,36.328872 4.470468,7.38976 14.708586,15.99971 14.708586,15.99971 z"
           id="path4116" />
        <g
           id="g4118"
           transform="translate(-18.508343,-21.838252)"
           style="fill:#668000" />
      </g>
      <path
         style="fill:#228b22;stroke:none;stroke-width:0.343584px;stroke-linecap:butt;stroke-linejoin:miter;stroke-opacity:1"
         d="M 79.845044,117.77337 C 100.64666,96.221761 118.24116,88.462219 118.24116,88.462219 L 89.594582,94.980561 117.98268,64.631914 94.664471,66.03473 124.31154,36.013873 106.24972,34.68708 128.6922,7.9222695 l 21.54777,27.2635375 -15.01305,0.467418 24.83468,27.830629 -20.1036,0.436139 33.55987,27.581229 -33.44647,3.496629 38.96856,19.751749 -54.22833,-1.09281 z"
         id="path4122"
         sodipodi:nodetypes="ccccccccccccccccc" />
    </g>
    <ellipse
       style="fill:#ffffff;stroke:none;stroke-width:38.121;stroke-linecap:square;stroke-dashoffset:1133.77;-inkscape-stroke:none;stop-color:#000000"
       id="path4220"
       cx="-8.699439"
       cy="113.45546"
       rx="6.7570405"
       ry="3.0150323"
       transform="rotate(-18.966459)"
       inkscape:transform-center-x="-4.4703344"
       inkscape:transform-center-y="-7.8110395" />
    <ellipse
       style="fill:#ffffff;stroke:none;stroke-width:38.121;stroke-linecap:square;stroke-dashoffset:1133.77;-inkscape-stroke:none;stop-color:#000000"
       id="ellipse4302"
       cx="54.48444"
       cy="90.495209"
       rx="6.7570405"
       ry="3.0150323"
       transform="rotate(-6.786173)"
       inkscape:transform-center-x="-6.0177402"
       inkscape:transform-center-y="-6.6920093" />
    <ellipse
       style="fill:#ffffff;stroke:none;stroke-width:38.121;stroke-linecap:square;stroke-dashoffset:1133.77;-inkscape-stroke:none;stop-color:#000000"
       id="ellipse4304"
       cx="82.063622"
       cy="56.863338"
       rx="6.7570405"
       ry="3.0150323"
       transform="rotate(-2.7065952)"
       inkscape:transform-center-x="-6.4785755"
       inkscape:transform-center-y="-6.2469432" />
    <ellipse
       style="fill:#ffffff;stroke:none;stroke-width:38.121;stroke-linecap:square;stroke-dashoffset:1133.77;-inkscape-stroke:none;stop-color:#000000"
       id="ellipse4306"
       cx="167.03104"
       cy="52.511436"
       rx="6.7570405"
       ry="3.0150323"
       transform="rotate(3.6273728)"
       inkscape:transform-center-x="-7.1282053"
       inkscape:transform-center-y="-5.4940698" />
    <ellipse
       style="fill:#ffffff;stroke:none;stroke-width:38.121;stroke-linecap:square;stroke-dashoffset:1133.77;-inkscape-stroke:none;stop-color:#000000"
       id="ellipse4308"
       cx="90.245132"
       cy="127.87472"
       rx="6.7570405"
       ry="3.0150323"
       transform="rotate(-18.966459)"
       inkscape:transform-center-x="-4.4703344"
       inkscape:transform-center-y="-7.8110395" />
    <ellipse
       style="fill:#ffffff;stroke:none;stroke-width:38.121;stroke-linecap:square;stroke-dashoffset:1133.77;-inkscape-stroke:none;stop-color:#000000"
       id="ellipse4310"
       cx="109.59813"
       cy="87.275787"
       rx="6.7570405"
       ry="3.0150323"
       transform="rotate(-5.1473541)"
       inkscape:transform-center-x="-6.2066627"
       inkscape:transform-center-y="-6.5171748" />
    <ellipse
       style="fill:#ffffff;stroke:none;stroke-width:38.121;stroke-linecap:square;stroke-dashoffset:1133.77;-inkscape-stroke:none;stop-color:#000000"
       id="ellipse4312"
       cx="76.171577"
       cy="113.9643"
       rx="6.7570405"
       ry="3.0150323"
       transform="rotate(-0.67048666)"
       inkscape:transform-center-x="-6.6964313"
       inkscape:transform-center-y="-6.0128208" />
  </g>
</svg>
