<?xml version="1.0" encoding="UTF-8" standalone="no"?>
<svg
   width="192mm"
   height="192mm"
   viewBox="0 0 192 192"
   version="1.1"
   id="svg5"
   xmlns="http://www.w3.org/2000/svg">
  <defs
     id="defs2"/>
  <g
     id="layer1">
    <g
       id="g829"
       transform="rotate(135,96,96)">
      <circle
         style="fill:#808080;stroke-width:0.231029;-inkscape-stroke:none;stop-color:#000000"
         id="path926"
         cx="96"
         cy="96"
         r="64"/>
      <path
         id="rect1744"
         style="fill:#696969;stroke-width:1.08715;stop-color:#000000"
         d="m 198.26378,322.06608 -23.29766,66.86541 102.58661,5.83218 13.27827,106.5823 151.37822,0.38218 15.79664,-106.96448 90.24262,-3.07 -21.77965,-74.68657 z"
         transform="scale(0.26458333)"/>
      <path
         style="fill:#556b2f;stroke:#000000;stroke-width:0.185685px;stroke-linecap:butt;stroke-linejoin:miter;stroke-opacity:1"
         d="M 54.791564,96.424348 136.25682,96.169325 128.1367,58.182222 c 0,0 -0.35501,-7.366073 -9.03764,-12.811717 -8.68262,-5.445644 -12.19483,-4.703198 -12.19483,-4.703198 l -2.0711,-10.230345 -15.292481,0.20316 -4.349245,12.459158 c 0,0 -8.254374,1.43106 -13.54777,5.30233 -5.293401,3.871273 -6.775646,4.313252 -6.694323,12.3728 0.02378,2.357453 -10.157747,35.649938 -10.157747,35.649938 z"
         id="path2306"/>
      <path
         style="fill:#aad400;stroke:#000000;stroke-width:0.264583px;stroke-linecap:butt;stroke-linejoin:miter;stroke-opacity:1"
         d="m 97.129495,46.449849 c 0,0 13.050395,-27.42185 10.034245,-36.123019 -1.64493,-4.7454004 -5.97712,-6.7973604 -9.547505,-6.6173004 -5.87807,0.29643 -10.94378,1.1112 -10.92516,10.6803894 0.0176,9.06207 10.43842,32.05993 10.43842,32.05993 z"
         id="path2854"/>
    </g>
  </g>
</svg>
