<?xml version="1.0" encoding="UTF-8" standalone="no"?>
<!-- Created with Inkscape (http://www.inkscape.org/) -->

<svg
   width="192mm"
   height="192mm"
   viewBox="0 0 192 192"
   version="1.1"
   id="svg5"
   inkscape:version="1.1.2 (0a00cf5339, 2022-02-04)"
   sodipodi:docname="lavaflow_border.svg"
   xmlns:inkscape="http://www.inkscape.org/namespaces/inkscape"
   xmlns:sodipodi="http://sodipodi.sourceforge.net/DTD/sodipodi-0.dtd"
   xmlns="http://www.w3.org/2000/svg"
   xmlns:svg="http://www.w3.org/2000/svg">
  <sodipodi:namedview
     id="namedview7"
     pagecolor="#ffffff"
     bordercolor="#666666"
     borderopacity="1.0"
     inkscape:pageshadow="2"
     inkscape:pageopacity="0.0"
     inkscape:pagecheckerboard="0"
     inkscape:document-units="mm"
     showgrid="false"
     inkscape:zoom="1.0489304"
     inkscape:cx="243.10479"
     inkscape:cy="602.04185"
     inkscape:window-width="2623"
     inkscape:window-height="1758"
     inkscape:window-x="400"
     inkscape:window-y="194"
     inkscape:window-maximized="0"
     inkscape:current-layer="layer1"
     width="192mm" />
  <defs
     id="defs2" />
  <g
     inkscape:label="Layer 1"
     inkscape:groupmode="layer"
     id="layer1">
    <rect
       style="fill:#cd853f;stroke-width:53.09;stroke-linecap:square;stroke-dashoffset:1133.77;stop-color:#000000"
       id="rect1680"
       width="192"
       height="192"
       x="0"
       y="0" />
    <g
       id="g2048"
       transform="matrix(0.72487558,0,0,0.67697563,-0.48833568,6.3237217)">
      <path
         style="fill:#a0522d;stroke:#000000;stroke-width:0.264583px;stroke-linecap:butt;stroke-linejoin:miter;stroke-opacity:1"
         d="m 15.380178,141.17953 c 0,0 21.115428,-18.41252 25.880299,-32.28846 4.764867,-13.875934 21.173376,-59.357382 21.173376,-59.357382 0,0 13.264396,10.392505 17.733885,10.603947 4.469487,0.211441 10.975073,-5.590194 10.975073,-5.590194 l 7.285585,5.810134 c 0,0 25.550774,68.940825 28.000854,70.863025 2.45008,1.9222 16.31075,21.84715 16.31075,21.84715 z"
         id="path1498"
         sodipodi:nodetypes="cscsccscc" />
      <path
         style="fill:#8b0000;stroke:none;stroke-width:0.264583px;stroke-linecap:butt;stroke-linejoin:miter;stroke-opacity:1"
         d="m 73.926741,59.493176 c 0,0 14.399943,26.443421 12.159332,33.181848 C 83.845462,99.41345 66.398152,115.36616 66.398152,115.36616 L 39.762271,134.13735 74.3112,130.3241 c 0,0 30.72473,20.92685 30.24716,19.71866 -0.47757,-1.20818 -18.644811,-23.80742 -17.625162,-32.19704 1.019648,-8.38961 11.495875,-16.60546 10.489067,-20.704271 C 96.415457,93.042638 80.44772,59.644544 80.44772,59.644544 Z"
         id="path1886" />
    </g>
    <g
       id="g2060"
       transform="matrix(0.75356129,0,0,0.69437693,78.809534,9.328015)">
      <path
         style="fill:#a52a2a;stroke:#000000;stroke-width:0.264583px;stroke-linecap:butt;stroke-linejoin:miter;stroke-opacity:1"
         d="m 15.380178,141.17953 c 0,0 21.115428,-18.41252 25.880299,-32.28846 4.764867,-13.875934 21.173376,-59.357382 21.173376,-59.357382 0,0 13.264396,10.392505 17.733885,10.603947 4.469487,0.211441 10.975073,-5.590194 10.975073,-5.590194 l 7.285585,5.810134 c 0,0 25.550774,68.940825 28.000854,70.863025 2.45008,1.9222 16.31075,21.84715 16.31075,21.84715 z"
         id="path2056"
         sodipodi:nodetypes="cscsccscc" />
      <path
         style="fill:#8b0000;stroke:none;stroke-width:0.264583px;stroke-linecap:butt;stroke-linejoin:miter;stroke-opacity:1"
         d="m 73.926741,59.493176 c 0,0 14.399943,26.443421 12.159332,33.181848 C 83.845462,99.41345 66.398152,115.36616 66.398152,115.36616 L 39.762271,134.13735 74.3112,130.3241 c 0,0 30.72473,20.92685 30.24716,19.71866 -0.47757,-1.20818 -18.644811,-23.80742 -17.625162,-32.19704 1.019648,-8.38961 11.495875,-16.60546 10.489067,-20.704271 C 96.415457,93.042638 80.44772,59.644544 80.44772,59.644544 Z"
         id="path2058" />
    </g>
    <g
       id="g2054"
       transform="matrix(0.87082019,0,0,0.88770583,25.70574,25.570392)">
      <path
         style="fill:#8b4513;stroke:#000000;stroke-width:0.264583px;stroke-linecap:butt;stroke-linejoin:miter;stroke-opacity:1"
         d="m 15.380178,141.17953 c 0,0 21.115428,-18.41252 25.880299,-32.28846 4.764867,-13.875934 21.173376,-59.357382 21.173376,-59.357382 0,0 13.264396,10.392505 17.733885,10.603947 4.469487,0.211441 10.975073,-5.590194 10.975073,-5.590194 l 7.285585,5.810134 c 0,0 25.550774,68.940825 28.000854,70.863025 2.45008,1.9222 16.31075,21.84715 16.31075,21.84715 z"
         id="path2050"
         sodipodi:nodetypes="cscsccscc" />
      <path
         style="fill:#8b0000;stroke:none;stroke-width:0.264583px;stroke-linecap:butt;stroke-linejoin:miter;stroke-opacity:1"
         d="m 73.926741,59.493176 c 0,0 14.399943,26.443421 12.159332,33.181848 C 83.845462,99.41345 66.398152,115.36616 66.398152,115.36616 L 39.762271,134.13735 74.3112,130.3241 c 0,0 30.72473,20.92685 30.24716,19.71866 -0.47757,-1.20818 -18.644811,-23.80742 -17.625162,-32.19704 1.019648,-8.38961 11.495875,-16.60546 10.489067,-20.704271 C 96.415457,93.042638 80.44772,59.644544 80.44772,59.644544 Z"
         id="path2052" />
    </g>
  </g>
</svg>
