<?xml version="1.0" encoding="UTF-8" standalone="no"?>
<!-- Created with Inkscape (http://www.inkscape.org/) -->

<svg
   width="192mm"
   height="192mm"
   viewBox="0 0 192 192"
   version="1.1"
   id="svg5"
   inkscape:version="1.1.2 (0a00cf5339, 2022-02-04)"
   sodipodi:docname="motorbike.svg"
   xmlns:inkscape="http://www.inkscape.org/namespaces/inkscape"
   xmlns:sodipodi="http://sodipodi.sourceforge.net/DTD/sodipodi-0.dtd"
   xmlns="http://www.w3.org/2000/svg"
   xmlns:svg="http://www.w3.org/2000/svg">
  <sodipodi:namedview
     id="namedview7"
     pagecolor="#ffffff"
     bordercolor="#666666"
     borderopacity="1.0"
     inkscape:pageshadow="2"
     inkscape:pageopacity="0.0"
     inkscape:pagecheckerboard="0"
     inkscape:document-units="mm"
     showgrid="false"
     inkscape:zoom="1.0489304"
     inkscape:cx="383.24754"
     inkscape:cy="602.04185"
     inkscape:window-width="2623"
     inkscape:window-height="1758"
     inkscape:window-x="877"
     inkscape:window-y="113"
     inkscape:window-maximized="0"
     inkscape:current-layer="layer1"
     width="192mm" />
  <defs
     id="defs2" />
  <g
     inkscape:label="Layer 1"
     inkscape:groupmode="layer"
     id="layer1">
    <path
       d="m 151.25337,78.103369 c -4.25616,-0.03123 -8.34508,0.670851 -12.15221,1.985974 l -9.42931,-15.854617 h 23.60077 c 3.79597,0 6.8731,-3.104349 6.8731,-6.933885 v -9.245172 c 0,-3.829525 -3.07713,-6.933885 -6.8731,-6.933885 h -12.97611 a 6.8730964,6.9338847 0 0 0 -5.10871,2.2954 l -10.73806,12.03694 -6.52201,-10.965944 a 6.8730964,6.9338847 0 0 0 -5.89367,-3.366396 H 89.123732 c -2.530732,0 -4.582065,2.069475 -4.582065,4.622586 v 4.622586 c 0,2.553122 2.051333,4.622598 4.582065,4.622598 h 19.018718 l 5.49848,9.245172 H 69.622465 C 64.545825,57.568664 56.757175,52.678255 41.012056,52.678255 h -15.88258 c -3.85323,0 -7.099623,3.181212 -7.026596,7.067944 0.07103,3.767698 3.120386,6.799826 6.871952,6.799826 h 16.037224 c 7.017432,0 11.078859,3.154633 13.685195,7.156064 l -3.233507,5.93107 C 47.7391,78.516509 43.768455,77.975961 39.650324,78.127927 20.351815,78.83894 4.8037251,94.745272 4.3652789,114.22255 c -0.4688025,20.81754 16.1182701,37.84139 36.6467771,37.84139 17.080217,0 31.428379,-11.78588 35.497539,-27.73554 h 24.123425 c 3.91566,0 7.04177,-3.29967 6.86622,-7.24505 -0.60655,-13.61353 5.01793,-27.060927 16.09021,-36.121484 l 3.57544,6.011678 c -7.91723,6.833917 -12.91483,17.011116 -12.83866,28.365066 0.1346,20.09556 16.38174,36.53348 36.30084,36.72359 20.51303,0.19589 37.18316,-16.60867 37.0099,-37.29823 -0.1684,-20.105661 -16.45391,-36.51441 -36.3836,-36.660601 z M 41.012056,138.19617 c -12.632751,0 -22.910321,-10.36848 -22.910321,-23.11296 0,-12.74448 10.27757,-23.112945 22.910321,-23.112945 1.21482,0 2.407016,0.09849 3.570861,0.283722 L 32.698473,114.05296 c -2.515266,4.61479 0.799571,10.27544 6.022552,10.27544 H 62.00278 c -3.542509,8.15453 -11.615533,13.86777 -20.990724,13.86777 z m 111.215574,-0.0335 c -13.19605,0.7087 -24.15635,-9.91834 -24.15635,-23.07944 0,-6.17202 2.41532,-11.78211 6.33613,-15.931745 l 14.15056,23.792455 c 1.30189,2.18909 4.11669,2.89895 6.28659,1.58556 l 3.92913,-2.37832 c 2.16988,-1.3134 2.87352,-4.15312 1.57164,-6.3422 L 146.43992,92.428197 a 22.911753,23.114393 0 0 1 4.54168,-0.457932 c 13.04571,0 23.57987,11.057525 22.8771,24.370295 -0.61858,11.71769 -10.01582,21.19805 -21.63107,21.8221 z"
       id="path2"
       style="stroke-width:0.287642;fill:#5f9ea0" />
  </g>
</svg>
