<?xml version="1.0" encoding="UTF-8" standalone="no"?>
<!-- Created with Inkscape (http://www.inkscape.org/) -->

<svg
   width="192mm"
   height="192mm"
   viewBox="0 0 192 192"
   version="1.1"
   id="svg5"
   inkscape:version="1.1.2 (0a00cf5339, 2022-02-04)"
   sodipodi:docname="tank.svg"
   xmlns:inkscape="http://www.inkscape.org/namespaces/inkscape"
   xmlns:sodipodi="http://sodipodi.sourceforge.net/DTD/sodipodi-0.dtd"
   xmlns="http://www.w3.org/2000/svg"
   xmlns:svg="http://www.w3.org/2000/svg">
  <sodipodi:namedview
     id="namedview7"
     pagecolor="#ffffff"
     bordercolor="#666666"
     borderopacity="1.0"
     inkscape:pageshadow="2"
     inkscape:pageopacity="0.0"
     inkscape:pagecheckerboard="0"
     inkscape:document-units="mm"
     showgrid="false"
     inkscape:zoom="1.0489304"
     inkscape:cx="382.77087"
     inkscape:cy="601.56518"
     inkscape:window-width="2745"
     inkscape:window-height="1897"
     inkscape:window-x="877"
     inkscape:window-y="113"
     inkscape:window-maximized="0"
     inkscape:current-layer="layer1"
     width="192mm" />
  <defs
     id="defs2" />
  <g
     inkscape:label="Layer 1"
     inkscape:groupmode="layer"
     id="layer1">
    <path
       id="rect924"
       style="fill:#445500;stroke-width:20.9972;stroke-linecap:square;stroke-dashoffset:299.977;-inkscape-stroke:none;stop-color:#000000"
       d="M 89.899675,50.133388 C 68.567924,50.426142 52.270391,54.800345 42.1058,68.461793 37.81838,74.650522 31.687265,82.746437 31.74591,89.966926 l -19.351548,4.47902 -9.76152,59.616024 c 4.8972755,0.0247 8.429576,0.0491 12.075242,0.0738 a 9.1461498,7.1841544 0 0 0 -4.005104,5.94114 9.1461498,7.1841544 0 0 0 9.146095,7.1843 9.1461498,7.1841544 0 0 0 9.146094,-7.1843 9.1461498,7.1841544 0 0 0 -3.887552,-5.87729 c 2.580062,0.0164 4.769783,0.0326 8.02404,0.0489 -8.999149,8.47626 -3.898018,22.44634 8.77361,26.53733 13.542484,5.4347 32.361103,-1.94636 33.637254,-14.21428 0.01466,-0.0246 0.01922,-0.0519 0.03319,-0.0766 a 21.600648,14.541641 0 0 0 -0.03319,0.63126 21.600648,14.541641 0 0 0 21.600732,14.54158 21.600648,14.541641 0 0 0 20.815207,-10.68031 c 2.08816,4.30262 6.17804,8.00425 11.74931,9.79837 13.54249,5.43471 32.3611,-1.94635 33.63725,-14.21427 2.51718,-4.22058 -5.08798,-11.23408 -3.17577,-12.60147 3.03306,-7e-4 5.17339,0.009 7.66262,0.009 a 11.043873,8.3354131 0 0 0 -4.18121,6.5297 11.043873,8.3354131 0 0 0 11.04401,8.33554 11.043873,8.3354131 0 0 0 11.04354,-8.33554 11.043873,8.3354131 0 0 0 -4.15355,-6.51365 c 2.80227,0.006 5.31698,-7e-4 8.80036,0.0105 -2.43681,-19.85326 -4.87362,-39.70654 -7.31042,-59.55982 l -48.17513,-1.819579 c -0.18079,-3.759105 -0.48643,-8.027435 -1.17277,-12.312836 h 55.16377 V 73.526826 H 132.26721 C 130.87475,68.570352 128.73997,63.959897 125.42008,60.525079 114.25632,49.946997 108.13064,50.30535 89.899675,50.133388 Z M 72.366741,153.97002 h 15.590772 a 21.600648,14.541641 0 0 0 -11.933257,10.11036 c -0.393799,-4.06345 -5.227088,-8.98797 -3.657515,-10.11036 z m 33.977459,0 h 14.86194 c -2.32397,2.09913 -3.75686,4.55844 -4.40478,7.13178 a 21.600648,14.541641 0 0 0 -10.45716,-7.13178 z" />
  </g>
</svg>
